<svg xmlns="http://www.w3.org/2000/svg" xmlns:xlink="http://www.w3.org/1999/xlink" width="500" zoomAndPan="magnify" viewBox="0 0 375 374.999991" height="500" preserveAspectRatio="xMidYMid meet" version="1.0"><defs><g/></defs><rect x="-37.5" width="450" fill="rgb(100%, 100%, 100%)" y="-37.499999" height="449.999989" fill-opacity="1"/><rect x="-37.5" width="450" fill="rgb(100%, 100%, 100%)" y="-37.499999" height="449.999989" fill-opacity="1"/><rect x="-37.5" width="450" fill="rgb(100%, 100%, 100%)" y="-37.499999" height="449.999989" fill-opacity="1"/><rect x="-37.5" width="450" fill="rgb(100%, 100%, 100%)" y="-37.499999" height="449.999989" fill-opacity="1"/><path fill="rgb(25.099182%, 4.708862%, 33.729553%)" d="M 290.773438 107.441406 L 226.652344 107.441406 C 222.582031 107.441406 219.328125 110.695312 219.328125 114.765625 L 219.328125 250.902344 C 219.328125 254.972656 222.582031 258.226562 226.652344 258.226562 L 290.773438 258.226562 C 294.84375 258.226562 298.097656 254.972656 298.097656 250.902344 L 298.097656 114.765625 C 298.097656 110.777344 294.84375 107.441406 290.773438 107.441406 Z M 294.597656 248.464844 C 294.597656 250.824219 292.644531 252.777344 290.285156 252.777344 L 227.058594 252.777344 C 224.699219 252.777344 222.746094 250.824219 222.746094 248.464844 L 222.746094 117.285156 C 222.746094 114.925781 224.699219 112.972656 227.058594 112.972656 L 241.054688 112.972656 L 241.054688 113.054688 C 241.054688 115.007812 242.679688 116.636719 244.632812 116.636719 L 272.789062 116.636719 C 274.742188 116.636719 276.371094 115.007812 276.371094 113.054688 L 276.371094 112.972656 L 290.367188 112.972656 C 292.726562 112.972656 294.679688 114.925781 294.679688 117.285156 L 294.679688 248.464844 Z M 294.597656 248.464844 " fill-opacity="1" fill-rule="nonzero"/><path fill="rgb(100%, 100%, 100%)" d="M 294.597656 117.285156 L 294.597656 248.464844 C 294.597656 250.824219 292.644531 252.777344 290.285156 252.777344 L 227.058594 252.777344 C 224.699219 252.777344 222.746094 250.824219 222.746094 248.464844 L 222.746094 117.285156 C 222.746094 114.925781 224.699219 112.972656 227.058594 112.972656 L 241.054688 112.972656 L 241.054688 113.054688 C 241.054688 115.007812 242.679688 116.636719 244.632812 116.636719 L 272.789062 116.636719 C 274.742188 116.636719 276.371094 115.007812 276.371094 113.054688 L 276.371094 112.972656 L 290.367188 112.972656 C 292.726562 112.972656 294.597656 114.925781 294.597656 117.285156 Z M 294.597656 117.285156 " fill-opacity="1" fill-rule="nonzero"/><path fill="rgb(100%, 37.249756%, 49.409485%)" d="M 285.484375 150.976562 L 231.941406 150.976562 C 229.417969 150.976562 227.382812 148.941406 227.382812 146.417969 L 227.382812 126.074219 C 227.382812 123.550781 229.417969 121.519531 231.941406 121.519531 L 285.566406 121.519531 C 288.089844 121.519531 290.121094 123.550781 290.121094 126.074219 L 290.121094 146.417969 C 290.042969 148.941406 288.007812 150.976562 285.484375 150.976562 Z M 285.484375 150.976562 " fill-opacity="1" fill-rule="nonzero"/><path fill="rgb(100%, 67.059326%, 29.798889%)" d="M 286.785156 161.878906 L 230.636719 161.878906 C 228.847656 161.878906 227.382812 160.414062 227.382812 158.625 C 227.382812 156.835938 228.847656 155.371094 230.636719 155.371094 L 286.785156 155.371094 C 288.578125 155.371094 290.042969 156.835938 290.042969 158.625 C 290.042969 160.414062 288.578125 161.878906 286.785156 161.878906 Z M 286.785156 161.878906 " fill-opacity="1" fill-rule="nonzero"/><path fill="rgb(69.018555%, 0%, 72.549438%)" d="M 286.785156 161.878906 L 274.09375 161.878906 C 272.300781 161.878906 270.835938 160.414062 270.835938 158.625 C 270.835938 156.835938 272.300781 155.371094 274.09375 155.371094 L 286.785156 155.371094 C 288.578125 155.371094 290.042969 156.835938 290.042969 158.625 C 290.042969 160.414062 288.578125 161.878906 286.785156 161.878906 Z M 286.785156 161.878906 " fill-opacity="1" fill-rule="nonzero"/><path fill="rgb(100%, 37.249756%, 49.409485%)" d="M 285.730469 195.164062 L 265.546875 195.164062 C 263.1875 195.164062 261.234375 193.210938 261.234375 190.847656 L 261.234375 170.667969 C 261.234375 168.308594 263.1875 166.355469 265.546875 166.355469 L 285.730469 166.355469 C 288.089844 166.355469 290.042969 168.308594 290.042969 170.667969 L 290.042969 190.847656 C 290.042969 193.210938 288.171875 195.164062 285.730469 195.164062 Z M 285.730469 195.164062 " fill-opacity="1" fill-rule="nonzero"/><path fill="rgb(100%, 67.059326%, 29.798889%)" d="M 251.796875 195.164062 L 231.695312 195.164062 C 229.335938 195.164062 227.382812 193.210938 227.382812 190.847656 L 227.382812 170.667969 C 227.382812 168.308594 229.335938 166.355469 231.695312 166.355469 L 251.875 166.355469 C 254.238281 166.355469 256.191406 168.308594 256.191406 170.667969 L 256.191406 190.847656 C 256.109375 193.210938 254.15625 195.164062 251.796875 195.164062 Z M 251.796875 195.164062 " fill-opacity="1" fill-rule="nonzero"/><path fill="rgb(69.018555%, 0%, 72.549438%)" d="M 286.542969 228.445312 L 274.335938 228.445312 C 272.382812 228.445312 270.835938 226.898438 270.835938 224.945312 L 270.835938 203.21875 C 270.835938 201.265625 272.382812 199.71875 274.335938 199.71875 L 286.542969 199.71875 C 288.496094 199.71875 290.042969 201.265625 290.042969 203.21875 L 290.042969 224.945312 C 290.042969 226.816406 288.496094 228.445312 286.542969 228.445312 Z M 286.542969 228.445312 " fill-opacity="1" fill-rule="nonzero"/><path fill="rgb(100%, 37.249756%, 49.409485%)" d="M 260.664062 228.445312 L 232.347656 228.445312 C 229.578125 228.445312 227.382812 226.246094 227.382812 223.480469 L 227.382812 204.683594 C 227.382812 201.917969 229.578125 199.71875 232.347656 199.71875 L 260.746094 199.71875 C 263.511719 199.71875 265.710938 201.917969 265.710938 204.683594 L 265.710938 223.480469 C 265.628906 226.246094 263.433594 228.445312 260.664062 228.445312 Z M 260.664062 228.445312 " fill-opacity="1" fill-rule="nonzero"/><path fill="rgb(100%, 67.059326%, 29.798889%)" d="M 290.042969 237.234375 L 290.042969 252.777344 L 261.316406 252.777344 L 261.316406 237.234375 C 261.316406 234.875 263.269531 232.921875 265.628906 232.921875 L 285.808594 232.921875 C 288.171875 233 290.042969 234.875 290.042969 237.234375 Z M 290.042969 237.234375 " fill-opacity="1" fill-rule="nonzero"/><path fill="rgb(100%, 67.059326%, 29.798889%)" d="M 256.109375 237.234375 L 256.109375 252.777344 L 227.382812 252.777344 L 227.382812 237.234375 C 227.382812 234.875 229.335938 232.921875 231.695312 232.921875 L 251.875 232.921875 C 254.15625 233 256.109375 234.875 256.109375 237.234375 Z M 256.109375 237.234375 " fill-opacity="1" fill-rule="nonzero"/><path fill="rgb(69.018555%, 0%, 72.549438%)" d="M 251.46875 192.882812 C 247.644531 192.882812 243.820312 192.882812 239.914062 192.882812 C 239.425781 192.882812 239.183594 193.046875 239.101562 193.535156 C 238.207031 197.605469 237.3125 201.753906 236.414062 205.824219 C 234.625 213.960938 232.753906 222.179688 230.964844 230.316406 C 230.882812 230.722656 230.964844 230.886719 231.289062 231.128906 C 232.589844 231.78125 233.566406 232.839844 234.300781 234.140625 C 236.007812 237.234375 234.707031 241.628906 231.613281 243.335938 C 230.394531 244.070312 229.011719 244.3125 227.628906 244.3125 C 226.570312 244.3125 225.59375 244.3125 224.535156 244.3125 L 189.542969 244.3125 C 189.542969 244.3125 189.460938 244.3125 189.378906 244.3125 C 189.460938 244.3125 189.460938 244.3125 189.542969 244.230469 C 188.324219 244.230469 187.101562 244.230469 185.882812 244.230469 C 184.90625 244.230469 184.171875 243.742188 183.765625 242.847656 C 183.359375 241.953125 183.523438 241.058594 184.171875 240.324219 C 184.742188 239.675781 185.476562 239.511719 186.289062 239.511719 C 200.039062 239.511719 213.710938 239.511719 227.464844 239.511719 C 227.707031 239.511719 228.035156 239.511719 228.277344 239.511719 C 229.5 239.429688 230.394531 238.371094 230.394531 237.152344 C 230.394531 235.769531 229.335938 234.875 227.871094 234.875 C 219 234.875 210.132812 234.875 201.261719 234.875 L 186.289062 234.875 C 184.742188 234.875 183.929688 234.222656 183.523438 232.757812 C 183.359375 232.269531 183.195312 231.699219 183.035156 231.210938 C 180.835938 223.398438 178.558594 215.667969 176.359375 207.855469 C 175.628906 205.414062 174.976562 202.972656 174.246094 200.53125 C 173.839844 198.988281 174.894531 197.605469 176.523438 197.605469 C 176.769531 197.605469 177.011719 197.605469 177.257812 197.605469 L 233.242188 197.605469 C 233.324219 197.523438 233.324219 197.523438 233.324219 197.523438 C 233.894531 195.164062 234.382812 192.800781 234.949219 190.441406 C 235.277344 188.976562 236.089844 188.328125 237.554688 188.328125 C 239.425781 188.328125 241.214844 188.328125 243.089844 188.328125 C 245.855469 188.328125 248.539062 188.328125 251.308594 188.328125 C 252.445312 188.328125 253.261719 188.898438 253.585938 189.871094 C 254.316406 191.417969 253.179688 192.882812 251.46875 192.882812 Z M 251.46875 192.882812 " fill-opacity="1" fill-rule="nonzero"/><path fill="rgb(69.018555%, 0%, 72.549438%)" d="M 197.519531 251.390625 C 197.4375 255.136719 194.671875 257.984375 190.84375 258.308594 C 187.589844 258.554688 184.171875 255.949219 183.683594 252.695312 C 183.601562 251.960938 183.523438 251.148438 183.683594 250.414062 C 183.765625 249.683594 184.011719 248.953125 184.335938 248.300781 C 184.660156 247.648438 185.148438 247 185.636719 246.429688 C 186.125 245.941406 186.777344 245.453125 187.429688 245.125 C 187.996094 244.800781 188.730469 244.636719 189.378906 244.394531 C 189.460938 244.394531 189.542969 244.394531 189.542969 244.394531 L 191.660156 244.394531 C 194.996094 244.882812 197.679688 248.054688 197.519531 251.390625 Z M 197.519531 251.390625 " fill-opacity="1" fill-rule="nonzero"/><path fill="rgb(69.018555%, 0%, 72.549438%)" d="M 230.394531 251.636719 C 230.066406 255.460938 227.140625 258.226562 223.476562 258.226562 C 219.816406 258.226562 216.722656 255.460938 216.480469 251.71875 C 216.234375 248.382812 218.511719 244.964844 222.417969 244.230469 L 222.175781 244.230469 L 224.453125 244.230469 C 228.035156 245.046875 230.636719 248.21875 230.394531 251.636719 Z M 230.394531 251.636719 " fill-opacity="1" fill-rule="nonzero"/><g fill="rgb(90.979004%, 27.839661%, 39.99939%)" fill-opacity="1"><g transform="translate(49.003452, 138.911628)"><g><path d="M 14.15625 0.3125 C 11.59375 0.3125 9.363281 -0.207031 7.46875 -1.25 C 5.582031 -2.300781 4.132812 -3.78125 3.125 -5.6875 C 2.113281 -7.59375 1.609375 -9.800781 1.609375 -12.3125 C 1.609375 -14.8125 2.113281 -17.007812 3.125 -18.90625 C 4.132812 -20.800781 5.582031 -22.269531 7.46875 -23.3125 C 9.363281 -24.363281 11.59375 -24.890625 14.15625 -24.890625 C 15.757812 -24.890625 17.3125 -24.644531 18.8125 -24.15625 C 20.3125 -23.664062 21.535156 -23.015625 22.484375 -22.203125 L 20.5 -17.671875 C 18.476562 -19.085938 16.410156 -19.796875 14.296875 -19.796875 C 12.296875 -19.796875 10.765625 -19.164062 9.703125 -17.90625 C 8.648438 -16.65625 8.125 -14.789062 8.125 -12.3125 C 8.125 -9.820312 8.648438 -7.941406 9.703125 -6.671875 C 10.765625 -5.410156 12.296875 -4.78125 14.296875 -4.78125 C 16.410156 -4.78125 18.476562 -5.488281 20.5 -6.90625 L 22.484375 -2.375 C 21.535156 -1.5625 20.3125 -0.910156 18.8125 -0.421875 C 17.3125 0.0664062 15.757812 0.3125 14.15625 0.3125 Z M 14.15625 0.3125 "/></g></g></g><g fill="rgb(90.979004%, 27.839661%, 39.99939%)" fill-opacity="1"><g transform="translate(72.632799, 138.911628)"><g><path d="M 13.90625 0.3125 C 11.394531 0.3125 9.210938 -0.203125 7.359375 -1.234375 C 5.515625 -2.265625 4.09375 -3.726562 3.09375 -5.625 C 2.101562 -7.519531 1.609375 -9.75 1.609375 -12.3125 C 1.609375 -14.863281 2.101562 -17.085938 3.09375 -18.984375 C 4.09375 -20.878906 5.515625 -22.335938 7.359375 -23.359375 C 9.210938 -24.378906 11.394531 -24.890625 13.90625 -24.890625 C 16.414062 -24.890625 18.59375 -24.378906 20.4375 -23.359375 C 22.289062 -22.335938 23.707031 -20.878906 24.6875 -18.984375 C 25.675781 -17.085938 26.171875 -14.863281 26.171875 -12.3125 C 26.171875 -9.75 25.671875 -7.519531 24.671875 -5.625 C 23.679688 -3.726562 22.257812 -2.265625 20.40625 -1.234375 C 18.5625 -0.203125 16.394531 0.3125 13.90625 0.3125 Z M 13.90625 -4.59375 C 15.769531 -4.59375 17.222656 -5.25 18.265625 -6.5625 C 19.304688 -7.882812 19.828125 -9.800781 19.828125 -12.3125 C 19.828125 -14.8125 19.296875 -16.710938 18.234375 -18.015625 C 17.179688 -19.316406 15.738281 -19.96875 13.90625 -19.96875 C 12.050781 -19.96875 10.597656 -19.320312 9.546875 -18.03125 C 8.503906 -16.75 7.984375 -14.84375 7.984375 -12.3125 C 7.984375 -9.769531 8.503906 -7.847656 9.546875 -6.546875 C 10.597656 -5.242188 12.050781 -4.59375 13.90625 -4.59375 Z M 13.90625 -4.59375 "/></g></g></g><g fill="rgb(90.979004%, 27.839661%, 39.99939%)" fill-opacity="1"><g transform="translate(100.374637, 138.911628)"><g><path d="M 2.234375 0 L 2.234375 -24.578125 L 8.640625 -24.578125 L 8.640625 -5.1875 L 19.109375 -5.1875 L 19.109375 0 Z M 2.234375 0 "/></g></g></g><g fill="rgb(90.979004%, 27.839661%, 39.99939%)" fill-opacity="1"><g transform="translate(120.309728, 138.911628)"><g><path d="M 2.234375 0 L 2.234375 -24.578125 L 8.640625 -24.578125 L 8.640625 -5.1875 L 19.109375 -5.1875 L 19.109375 0 Z M 2.234375 0 "/></g></g></g><g fill="rgb(90.979004%, 27.839661%, 39.99939%)" fill-opacity="1"><g transform="translate(140.24482, 138.911628)"><g><path d="M 2.234375 0 L 2.234375 -24.578125 L 19.703125 -24.578125 L 19.703125 -19.625 L 8.46875 -19.625 L 8.46875 -14.953125 L 19 -14.953125 L 19 -10.046875 L 8.46875 -10.046875 L 8.46875 -4.953125 L 19.703125 -4.953125 L 19.703125 0 Z M 2.234375 0 "/></g></g></g><g fill="rgb(90.979004%, 27.839661%, 39.99939%)" fill-opacity="1"><g transform="translate(161.051197, 138.911628)"><g><path d="M 23.984375 -13.875 L 23.984375 -1.5625 C 22.703125 -0.957031 21.25 -0.492188 19.625 -0.171875 C 18 0.148438 16.335938 0.3125 14.640625 0.3125 C 11.960938 0.3125 9.640625 -0.191406 7.671875 -1.203125 C 5.710938 -2.210938 4.210938 -3.664062 3.171875 -5.5625 C 2.128906 -7.457031 1.609375 -9.707031 1.609375 -12.3125 C 1.609375 -14.84375 2.128906 -17.0625 3.171875 -18.96875 C 4.210938 -20.875 5.691406 -22.335938 7.609375 -23.359375 C 9.535156 -24.378906 11.785156 -24.890625 14.359375 -24.890625 C 16.148438 -24.890625 17.828125 -24.65625 19.390625 -24.1875 C 20.960938 -23.726562 22.238281 -23.09375 23.21875 -22.28125 L 21.234375 -17.75 C 20.085938 -18.488281 18.992188 -19.019531 17.953125 -19.34375 C 16.910156 -19.664062 15.796875 -19.828125 14.609375 -19.828125 C 12.398438 -19.828125 10.753906 -19.210938 9.671875 -17.984375 C 8.585938 -16.753906 8.046875 -14.863281 8.046875 -12.3125 C 8.046875 -9.675781 8.609375 -7.722656 9.734375 -6.453125 C 10.867188 -5.191406 12.597656 -4.5625 14.921875 -4.5625 C 16.035156 -4.5625 17.140625 -4.679688 18.234375 -4.921875 L 18.234375 -9.484375 L 13.90625 -9.484375 L 13.90625 -13.875 Z M 23.984375 -13.875 "/></g></g></g><g fill="rgb(90.979004%, 27.839661%, 39.99939%)" fill-opacity="1"><g transform="translate(186.980749, 138.911628)"><g><path d="M 2.234375 0 L 2.234375 -24.578125 L 19.703125 -24.578125 L 19.703125 -19.625 L 8.46875 -19.625 L 8.46875 -14.953125 L 19 -14.953125 L 19 -10.046875 L 8.46875 -10.046875 L 8.46875 -4.953125 L 19.703125 -4.953125 L 19.703125 0 Z M 2.234375 0 "/></g></g></g><g fill="rgb(90.979004%, 27.839661%, 39.99939%)" fill-opacity="1"><g transform="translate(57.851107, 177.161626)"><g><path d="M 18.71875 -12.765625 C 20.15625 -12.316406 21.257812 -11.578125 22.03125 -10.546875 C 22.800781 -9.515625 23.1875 -8.242188 23.1875 -6.734375 C 23.1875 -5.378906 22.832031 -4.195312 22.125 -3.1875 C 21.414062 -2.175781 20.398438 -1.390625 19.078125 -0.828125 C 17.765625 -0.273438 16.226562 0 14.46875 0 L 2.234375 0 L 2.234375 -24.578125 L 14.125 -24.578125 C 16.695312 -24.578125 18.742188 -24 20.265625 -22.84375 C 21.785156 -21.695312 22.546875 -20.148438 22.546875 -18.203125 C 22.546875 -16.941406 22.207031 -15.828125 21.53125 -14.859375 C 20.863281 -13.898438 19.925781 -13.203125 18.71875 -12.765625 Z M 8.46875 -14.921875 L 13.03125 -14.921875 C 14.238281 -14.921875 15.117188 -15.101562 15.671875 -15.46875 C 16.234375 -15.84375 16.515625 -16.4375 16.515625 -17.25 C 16.515625 -18.113281 16.234375 -18.742188 15.671875 -19.140625 C 15.117188 -19.535156 14.238281 -19.734375 13.03125 -19.734375 L 8.46875 -19.734375 Z M 13.671875 -4.84375 C 14.941406 -4.84375 15.847656 -5.046875 16.390625 -5.453125 C 16.941406 -5.859375 17.21875 -6.523438 17.21875 -7.453125 C 17.21875 -8.390625 16.941406 -9.0625 16.390625 -9.46875 C 15.847656 -9.875 14.941406 -10.078125 13.671875 -10.078125 L 8.46875 -10.078125 L 8.46875 -4.84375 Z M 13.671875 -4.84375 "/></g></g></g><g fill="rgb(90.979004%, 27.839661%, 39.99939%)" fill-opacity="1"><g transform="translate(82.072938, 177.161626)"><g><path d="M 20.953125 0 L 18.75 -5.09375 L 7.875 -5.09375 L 5.6875 0 L -0.765625 0 L 10.703125 -24.578125 L 15.796875 -24.578125 L 27.296875 0 Z M 9.9375 -9.90625 L 16.703125 -9.90625 L 13.3125 -17.78125 Z M 9.9375 -9.90625 "/></g></g></g><g fill="rgb(90.979004%, 27.839661%, 39.99939%)" fill-opacity="1"><g transform="translate(108.594962, 177.161626)"><g><path d="M 8.890625 -5.015625 L 20.328125 -5.015625 L 20.328125 0 L 1.8125 0 L 1.8125 -4.703125 L 12.71875 -19.5625 L 1.8125 -19.5625 L 1.8125 -24.578125 L 19.90625 -24.578125 L 19.90625 -19.96875 Z M 8.890625 -5.015625 "/></g></g></g><g fill="rgb(90.979004%, 27.839661%, 39.99939%)" fill-opacity="1"><g transform="translate(130.098363, 177.161626)"><g><path d="M 20.953125 0 L 18.75 -5.09375 L 7.875 -5.09375 L 5.6875 0 L -0.765625 0 L 10.703125 -24.578125 L 15.796875 -24.578125 L 27.296875 0 Z M 9.9375 -9.90625 L 16.703125 -9.90625 L 13.3125 -17.78125 Z M 9.9375 -9.90625 "/></g></g></g><g fill="rgb(90.979004%, 27.839661%, 39.99939%)" fill-opacity="1"><g transform="translate(156.620387, 177.161626)"><g><path d="M 20.953125 0 L 18.75 -5.09375 L 7.875 -5.09375 L 5.6875 0 L -0.765625 0 L 10.703125 -24.578125 L 15.796875 -24.578125 L 27.296875 0 Z M 9.9375 -9.90625 L 16.703125 -9.90625 L 13.3125 -17.78125 Z M 9.9375 -9.90625 "/></g></g></g><g fill="rgb(90.979004%, 27.839661%, 39.99939%)" fill-opacity="1"><g transform="translate(183.142411, 177.161626)"><g><path d="M 24.328125 0 L 17.296875 0 L 13.03125 -7.84375 C 12.5 -8.75 11.65625 -9.203125 10.5 -9.203125 L 8.546875 -9.203125 L 8.546875 0 L 2.234375 0 L 2.234375 -24.578125 L 13.9375 -24.578125 C 16.914062 -24.578125 19.15625 -23.929688 20.65625 -22.640625 C 22.15625 -21.347656 22.90625 -19.484375 22.90625 -17.046875 C 22.90625 -15.179688 22.390625 -13.601562 21.359375 -12.3125 C 20.335938 -11.03125 18.898438 -10.164062 17.046875 -9.71875 C 18.460938 -9.414062 19.585938 -8.5 20.421875 -6.96875 Z M 12.9375 -14.015625 C 14.351562 -14.015625 15.367188 -14.234375 15.984375 -14.671875 C 16.597656 -15.117188 16.90625 -15.84375 16.90625 -16.84375 C 16.90625 -17.863281 16.597656 -18.597656 15.984375 -19.046875 C 15.367188 -19.503906 14.351562 -19.734375 12.9375 -19.734375 L 8.46875 -19.734375 L 8.46875 -14.015625 Z M 12.9375 -14.015625 "/></g></g></g></svg>